<svg xmlns="http://www.w3.org/2000/svg" version="1.1" xmlns:xlink="http://www.w3.org/1999/xlink" xmlns:svgjs="http://svgjs.com/svgjs" width="512" height="512"><svg version="1.1" id="SvgjsSvg1000" xmlns="http://www.w3.org/2000/svg" xmlns:xlink="http://www.w3.org/1999/xlink" x="0px" y="0px" viewBox="0 0 512 512" style="enable-background:new 0 0 512 512;" xml:space="preserve">
<style type="text/css">
	.st0{fill:none;stroke:#8BD7F6;stroke-width:8;stroke-linecap:round;stroke-linejoin:round;stroke-miterlimit:10;}
</style>
<g>
	<g>
		<g>
			<path class="st0" d="M470.6,182.5c-1.2-2.6-2.6-5.2-4-7.7 M317.3,64.1C317.3,64.1,317.4,64.1,317.3,64.1c1.8,0.4,3.5,0.9,5.2,1.4
				c2.6,0.8,5.2,1.5,7.8,2.4c0.1,0,0.1,0,0.2,0.1 M339,280.1c0-0.6,0-1.1-0.1-1.5c0-0.6-0.1-1.3-0.2-1.9c0-0.5-0.1-1.1-0.3-1.6
				c-0.1-1-0.3-1.9-0.5-2.9c-0.2-1-0.4-1.9-0.7-2.8c0-0.1,0-0.2-0.1-0.3c-0.1-0.6-0.4-1.2-0.6-1.8c-0.2-0.7-0.4-1.4-0.7-2.1
				c-0.4-1-0.7-2-1.2-3c-0.2-0.4-0.3-0.7-0.5-1c-0.4-0.9-0.9-1.8-1.4-2.6c-0.6-1.1-1.2-2.1-1.9-3.2c-0.7-1-1.4-2-2.2-3
				c-0.7-1-1.5-1.9-2.4-2.9c-0.7-0.9-1.6-1.8-2.6-2.6c-0.8-0.7-1.6-1.5-2.4-2.2c-1.1-0.9-2.2-1.8-3.3-2.6c-1.1-0.7-2.1-1.5-3.2-2.1
				c-0.8-0.5-1.5-0.9-2.4-1.3c-0.2-0.1-0.4-0.2-0.5-0.3c-0.4-0.2-0.7-0.4-1.1-0.5c0,0-0.1-0.1-0.2-0.1c-0.9-0.4-1.8-0.9-2.8-1.2
				c-1.6-0.7-3.3-1.2-5-1.7c-1.5-0.4-2.9-0.8-4.2-1c-0.1,0-0.2,0-0.2,0c-0.1,0-0.2,0-0.3,0c-0.7-0.1-1.4-0.2-2-0.3
				c-2.3-0.4-4.6-0.5-6.9-0.5c-1.2,0-2.4,0-3.6,0.2c-1.2,0.1-2.5,0.2-3.7,0.4c-1,0.2-2.1,0.4-3.1,0.6c-0.4,0-0.7,0.1-1.1,0.2
				c-1.1,0.3-2.1,0.5-3.2,0.9c-0.8,0.2-1.6,0.5-2.4,0.8c-0.3,0.1-0.6,0.2-0.9,0.3c-1.1,0.4-2.2,0.9-3.3,1.5
				c-1.1,0.5-2.2,1.1-3.2,1.7c-1.5,0.8-3,1.8-4.4,2.8c-0.2,0.1-0.4,0.3-0.5,0.4c-0.6,0.4-1.1,0.8-1.6,1.2c-0.6,0.4-1.2,1-1.8,1.5
				c-0.3,0.2-0.6,0.5-0.9,0.8c-0.4,0.3-0.8,0.7-1.2,1.1c-0.6,0.6-1.1,1.2-1.8,1.8c-0.1,0.1-0.2,0.2-0.2,0.3
				c-0.7,0.8-1.4,1.6-2.1,2.4c-0.9,1.1-1.8,2.3-2.6,3.6c-0.6,0.7-1.1,1.5-1.5,2.4c-1.2,2.1-2.3,4.3-3.3,6.6c-0.7,2-1.5,4.1-2,6
				c-0.1,0.6-0.3,1.2-0.4,1.8c-0.3,1.1-0.4,2.2-0.6,3.3c0,0,0,0,0,0c0,0.2,0,0.4-0.1,0.5c-0.1,1.1-0.3,2.1-0.3,3.2v0.1
				c-0.1,1.2-0.2,2.4-0.2,3.6c0,19.9,11.8,38.8,31.4,46.6c6.1,2.5,12.4,3.6,18.6,3.6c1.2,0,2.5,0,3.7-0.1c1.2-0.2,2.3-0.3,3.4-0.4
				c2.3-0.3,4.5-0.8,6.7-1.4c0.7-0.2,1.4-0.4,2.1-0.7c0.3-0.1,0.6-0.2,0.8-0.3c0.7-0.2,1.3-0.5,2-0.7c0.9-0.4,1.8-0.8,2.7-1.2
				c1.1-0.4,2-1.1,3.1-1.6c0.1,0,0.2-0.1,0.3-0.2c1-0.5,1.9-1.1,2.7-1.7c0.1-0.1,0.2-0.1,0.3-0.2c1.1-0.6,2-1.3,2.9-2.1
				c2.1-1.5,4-3.3,5.7-5.2c0.6-0.6,1.2-1.3,1.8-1.9c0.2-0.3,0.4-0.4,0.5-0.7c0-0.1,0-0.1,0-0.1c1-1.2,2-2.5,2.9-3.9
				c0.5-0.7,1-1.4,1.4-2.2c1.3-2.2,2.4-4.4,3.4-6.9c0.4-0.9,0.7-1.8,1-2.8c0.2-0.6,0.4-1.2,0.5-1.8c0.2-0.6,0.4-1.2,0.5-1.8
				c0.1-0.3,0.2-0.7,0.2-1c0.2-0.9,0.4-1.8,0.5-2.8c0.2-0.9,0.4-1.9,0.4-2.8c0.1-1,0.2-1.9,0.3-2.9c0-0.9,0-1.8,0-2.8
				C339.1,282.1,339.1,281.1,339,280.1z M388.3,436C388.2,436,388.2,436,388.3,436 M266.2,443.6L266.2,443.6 M266.3,443.6
				c1.9,0.7,3.9,1.2,5.8,1.8c0.1,0.1,0.2,0.1,0.4,0.1c0.7,0.3,1.5,0.4,2.3,0.6"></path>
			<path class="st0" d="M339.1,283.2c0,1,0,1.8,0,2.8c-0.1,0.9-0.2,1.9-0.3,2.9c-0.1,0.9-0.2,1.9-0.4,2.8c-0.1,1-0.3,1.9-0.5,2.8
				c0,0.3-0.1,0.7-0.2,1c-0.1,0.6-0.3,1.1-0.5,1.8c-0.1,0.6-0.3,1.2-0.5,1.8c-0.3,1-0.7,1.9-1,2.8c-1,2.5-2.1,4.7-3.4,6.9
				c-0.4,0.8-0.9,1.5-1.4,2.2c-0.8,1.4-1.8,2.6-2.9,3.9c0,0,0,0,0,0.1c-0.2,0.3-0.4,0.4-0.5,0.7c-0.6,0.6-1.2,1.3-1.8,1.9
				c-1.8,1.9-3.7,3.7-5.7,5.2c-0.9,0.8-1.8,1.5-2.9,2.1c-0.1,0.1-0.2,0.1-0.3,0.2c-0.8,0.6-1.8,1.1-2.7,1.7c0,0.1-0.1,0.2-0.3,0.2
				c-1.1,0.5-2,1.1-3.1,1.6c-0.9,0.4-1.8,0.8-2.7,1.2c-0.7,0.2-1.3,0.5-2,0.7c-0.3,0.1-0.5,0.2-0.8,0.3c-0.7,0.3-1.4,0.5-2.1,0.7
				c-2.2,0.6-4.4,1.1-6.7,1.4c-1.1,0.2-2.2,0.3-3.4,0.4c-1.2,0.1-2.4,0.1-3.7,0.1c-6.2,0-12.5-1.1-18.6-3.6
				c-19.6-7.8-31.4-26.7-31.4-46.6c0-1.2,0-2.4,0.2-3.6v-0.1c0-1.1,0.2-2.1,0.3-3.2c0-0.1,0.1-0.4,0.1-0.5c0,0,0,0,0,0
				c0.1-1.1,0.3-2.2,0.6-3.3c0.2-0.6,0.3-1.2,0.4-1.8c0.5-2,1.2-4.1,2-6c1-2.3,2-4.4,3.3-6.6c0.4-0.8,0.9-1.6,1.5-2.4
				c0.7-1.3,1.7-2.5,2.6-3.6c0.7-0.8,1.4-1.6,2.1-2.4c0-0.1,0.1-0.2,0.2-0.3c0.6-0.6,1.1-1.2,1.8-1.8c0.4-0.4,0.8-0.8,1.2-1.1
				c0.3-0.4,0.6-0.6,0.9-0.8c0.6-0.5,1.1-1.1,1.8-1.5c0.5-0.4,1.1-0.9,1.6-1.2c0.2-0.1,0.4-0.3,0.5-0.4c1.5-1,3-2,4.4-2.8
				c1.1-0.6,2.1-1.2,3.2-1.7c1.1-0.5,2.2-1,3.3-1.5c0.4-0.1,0.6-0.2,0.9-0.3c0.8-0.3,1.6-0.6,2.4-0.8c1.1-0.4,2.1-0.6,3.2-0.9
				c0.3-0.1,0.7-0.2,1.1-0.2c1-0.2,2.1-0.4,3.1-0.6c1.3-0.2,2.5-0.3,3.7-0.4c1.2-0.1,2.4-0.2,3.6-0.2c2.3,0,4.6,0.2,6.9,0.5
				c0.7,0.1,1.4,0.2,2,0.3c0.1,0,0.1,0,0.3,0c0,0,0.1,0,0.2,0c1.4,0.2,2.8,0.6,4.2,1c1.7,0.5,3.4,1,5,1.7c1,0.4,1.9,0.8,2.8,1.2
				c0,0,0.1,0,0.2,0.1c0.4,0.2,0.7,0.3,1.1,0.5c0.2,0,0.4,0.1,0.5,0.3c0.8,0.4,1.6,0.8,2.4,1.3c1.1,0.6,2.2,1.3,3.2,2.1
				c1.2,0.8,2.3,1.7,3.3,2.6c0.8,0.7,1.6,1.4,2.4,2.2c0.9,0.9,1.8,1.7,2.6,2.6c0.8,1,1.6,1.8,2.4,2.9c0.8,0.9,1.5,1.9,2.2,3
				c0.7,1.1,1.3,2.1,1.9,3.2c0.5,0.9,1,1.7,1.4,2.6c0.2,0.4,0.3,0.7,0.5,1c0.5,1,0.9,2,1.2,3c0.3,0.7,0.5,1.4,0.7,2.1
				c0.3,0.6,0.5,1.2,0.6,1.8c0,0.1,0,0.2,0.1,0.3c0.3,0.9,0.5,1.8,0.7,2.8c0.3,1,0.4,1.9,0.5,2.9c0.1,0.5,0.2,1.1,0.3,1.6
				c0.1,0.6,0.2,1.3,0.2,1.9c0.1,0.5,0.1,1,0.1,1.5C339.1,281.1,339.1,282.1,339.1,283.2z"></path>
			<path class="st0" d="M238.9,287.7c0.9,13.3,5.5,26.1,13,36.9"></path>
		</g>
		<path class="st0" d="M176.4,377.4L176.4,377.4c-5.2,5.5-9.4,11-12.2,16.5c0,0,0,0,0,0.1l-79.6,53.6
			c-70.4-79.3-72.7-177.7-72.7-177.7s8.6-4.7,23.7-9c25.3-7.2,68.7-13.3,120.1,5.5c-0.6,5.5-0.9,11.1-0.8,16.7
			c-0.1,1.1-0.3,2.3-0.4,3.5c-4.4,1.3-8.6,2.8-12.3,4.5C142.1,291.8,142.1,343.8,176.4,377.4z"></path>
		<path class="st0" d="M218.6,181.9c-6.4,4.1-12.7,8.9-18.7,14.3c-6.4-3.5-12.7-6.4-18.4-7.9c0,0-21.6,37.6-25.9,78.1
			c-51.3-18.8-94.8-12.7-120.1-5.5c0.4-1.5,0.6-3,0.9-4.4c0.1-73.6,62.9-167,62.9-167s13.9,1.2,33,9
			C158.8,109,195.3,132.3,218.6,181.9z"></path>
		<path class="st0" d="M36.4,256.7c0-0.1,0-0.1,0-0.2"></path>
		<path class="st0" d="M472,146.6c-0.3,10.1-2.2,19.5-5.4,28.2c0,0-0.1,0-0.1,0.1v0"></path>
		<line class="st0" x1="388.3" y1="436" x2="388.2" y2="436"></line>
		<path class="st0" d="M388.2,436L388.2,436c-42.5,33.6-110.5,30.8-110.5,30.8c-2-5.6-2.9-12.8-3-20.7c0-0.7,0-1.4,0-2V444
			c0-37.8,16.4-91.3,16.4-91.3c2,0.5,4.1,1,6.3,1.3c15.1,2.6,30.8-0.2,44.7-7c2.6,5.8,4.8,10.9,6,13.8c0.2,0.4,0.3,0.8,0.4,1.1
			C356.1,381.1,370.6,414.3,388.2,436z"></path>
		<path class="st0" d="M335,179.8c-10.2-4.8-19.9-8.2-27.4-8.4c0,0-0.1,0-0.2-0.1c-0.4-6.2-1.3-12.1-3.1-17.2c0,0-44.4,1-85.7,27.7
			c-23.3-49.6-59.8-72.9-86.3-83.5c0,0,0.1,0,0.2-0.2c3.7-3.2,65.6-55.7,172.4-52.3c0,0,5.7,6.4,12.4,18.1
			C330,86.2,346.4,127.3,335,179.8z"></path>
		<path class="st0" d="M317.4,64.1c58.6,16.3,112.5,39.1,154.5,82.4"></path>
		<path class="st0" d="M497.3,333.2c-6.9,1.5-13.6,2.5-20.2,3.1C463.2,424,405,451.7,405,451.7c-5.8-3.7-11.4-9.2-16.6-15.7l0,0
			h-0.1c-17.6-21.7-32.1-54.9-39.6-74c0,0,31.9-34.4,32.5-58.9c4.8-0.1,9.3-0.7,13.6-1.9c0,0,2-24.8-5.3-48.9
			c13.3-6.7,61-33.1,77.2-77.3c1.4,2.5,2.7,5.1,4.1,7.6c0.4,0.9,0.9,1.8,1.3,2.8c0.1,0.1,0.2,0.2,0.2,0.3
			C495.6,233.4,503.5,282.7,497.3,333.2z"></path>
		<polyline class="st0" points="466.6,174.9 466.6,174.9 466.6,175 		"></polyline>
		<path class="st0" d="M377.7,318.2c10,5.1,49.2,22.9,99.4,18.1"></path>
		<path class="st0" d="M291.2,352.7c0,0-16.4,53.5-16.4,91.3c-2.9,0-5.7-0.1-8.5-0.4c0,0.1,0,0.1-0.1,0
			c-63.8-4.5-102.1-49.7-102.1-49.7c0-0.1,0-0.1,0-0.1c2.8-5.5,7-11,12.2-16.5l0,0c26.2-27.7,75.6-52.8,75.6-52.8
			c4.4,6.4,9.9,12.1,16.4,16.8c4.8,3.7,10.3,6.7,16.2,9.1C286.7,351.3,288.9,352.1,291.2,352.7z"></path>
		<path class="st0" d="M298.2,233.9c-0.1,0-0.2,0-0.3,0c-0.7-0.1-1.4-0.2-2-0.3c-2.3-0.4-4.6-0.5-6.9-0.5c-1.2,0-2.4,0-3.6,0.2
			c-1.2,0.1-2.5,0.2-3.7,0.4c-1,0.2-2.1,0.4-3.1,0.6c-0.4,0-0.7,0.1-1.1,0.2c-1.1,0.3-2.1,0.5-3.2,0.9c-0.8,0.2-1.6,0.5-2.4,0.8
			c-0.3,0.1-0.6,0.2-0.9,0.3c-1.1,0.4-2.2,0.9-3.3,1.5c-1.1,0.5-2.2,1.1-3.2,1.7c-1.5,0.8-3,1.8-4.4,2.8c0,0-31.5-30.3-60.1-46.1
			c6-5.1,12.5-9.5,19.2-13.2c-0.2-0.4-0.4-0.8-0.5-1.1c41.3-26.7,85.7-27.7,85.7-27.7c1.8,5.1,2.7,11,3.1,17.2
			C309,199.4,298.2,233.9,298.2,233.9z"></path>
		<path class="st0" d="M392.7,216.5c-4.1,5.4-8.4,10.3-12.9,14.7h-0.1c-21.2,20.6-45.7,30-45.7,30c-0.4-0.9-0.9-1.8-1.4-2.6
			c-0.6-1.1-1.2-2.1-1.9-3.2c-0.7-1-1.4-2-2.2-3c-0.7-1-1.5-1.9-2.4-2.9c-0.7-0.9-1.6-1.8-2.6-2.6c-0.8-0.7-1.6-1.5-2.4-2.2
			c-1.1-0.9-2.2-1.8-3.3-2.6c-1.1-0.7-2.1-1.5-3.2-2.1c-0.8-0.5-1.5-0.9-2.4-1.3c-0.2-0.1-0.4-0.2-0.5-0.3c-0.4-0.2-0.7-0.4-1.1-0.5
			c0,0-0.1-0.1-0.2-0.1c-0.9-0.4-1.8-0.9-2.8-1.2c-1.6-0.7-3.3-1.2-5-1.7c-1.5-0.4-2.9-0.8-4.2-1c-0.1,0-0.2,0-0.2,0
			c0,0,10.7-34.5,9.2-62.5c0,0,0.1,0,0.2,0.1c7.5,0.1,17.2,3.5,27.4,8.4C362.3,192.9,392.7,216.5,392.7,216.5z"></path>
		<path class="st0" d="M394.7,301.1c-4.2,1.2-8.8,1.8-13.6,1.9c-20.9,0.5-43.3-8.6-43.3-8.6c0.2-0.9,0.4-1.8,0.5-2.8
			c0.2-0.9,0.4-1.9,0.4-2.8c0.1-1,0.2-1.9,0.3-2.9c0-0.9,0-1.8,0-2.8c0-1.1,0-2.1-0.1-3.1c0-0.6,0-1.1-0.1-1.5
			c0-0.6-0.1-1.3-0.2-1.9c0-0.5-0.1-1.1-0.3-1.6c-0.1-1-0.3-1.9-0.5-2.9c-0.2-1-0.4-1.9-0.7-2.8c0-0.1,0-0.2-0.1-0.3
			c-0.1-0.6-0.4-1.2-0.6-1.8c-0.2-0.7-0.4-1.4-0.7-2.1c-0.4-1-0.7-2-1.2-3c-0.2-0.4-0.3-0.7-0.5-1c0,0,24.4-9.4,45.7-30h0.1
			c0,0,0,0,0,0.1v0c4.3,6.4,7.4,13.7,9.6,20.9C396.7,276.3,394.7,301.1,394.7,301.1z"></path>
		<path class="st0" d="M260,242.3c-0.2,0.1-0.4,0.3-0.5,0.4c-0.6,0.4-1.1,0.8-1.6,1.2c-0.6,0.4-1.2,1-1.8,1.5
			c-0.3,0.2-0.6,0.5-0.9,0.8c-0.4,0.3-0.8,0.7-1.2,1.1c-0.6,0.6-1.1,1.2-1.8,1.8c-0.1,0.1-0.2,0.2-0.2,0.3c-0.7,0.8-1.4,1.6-2.1,2.4
			c-0.9,1.1-1.8,2.3-2.6,3.6c-0.6,0.7-1.1,1.5-1.5,2.4c-1.2,2.1-2.3,4.3-3.3,6.6c-0.7,2-1.5,4.1-2,6c-0.1,0.6-0.3,1.2-0.4,1.8
			c-0.3,1.1-0.4,2.2-0.6,3.3c0,0,0,0,0,0c-1.8,0-51.7,1-85.2,11.1c0.1-1.2,0.3-2.4,0.4-3.5c-0.1-5.6,0.2-11.2,0.8-16.7
			c4.4-40.5,25.9-78.1,25.9-78.1c5.7,1.5,12,4.4,18.4,7.9C228.5,212,260,242.3,260,242.3z"></path>
		<path class="st0" d="M342.2,347.1c-13.9,6.8-29.6,9.5-44.7,7c-2.2-0.4-4.3-0.8-6.3-1.3c-2.2-0.6-4.4-1.4-6.6-2.3
			c-5.9-2.4-11.4-5.4-16.2-9.1c-6.5-4.8-12-10.4-16.4-16.8c0,0-49.4,25.1-75.6,52.8c-34.3-33.6-34.3-85.6-34.3-86.3
			c3.7-1.7,7.9-3.2,12.3-4.5c33.5-10.1,83.4-11.1,85.2-11.1c0,0.2,0,0.4-0.1,0.5c-0.1,1.1-0.3,2.1-0.3,3.2v0.1
			c-0.1,1.2-0.2,2.4-0.2,3.6c0,19.9,11.8,38.8,31.4,46.6c6.1,2.5,12.4,3.6,18.6,3.6c1.2,0,2.5,0,3.7-0.1c1.2-0.2,2.3-0.3,3.4-0.4
			c2.3-0.3,4.5-0.8,6.7-1.4c0.7-0.2,1.4-0.4,2.1-0.7c0.3-0.1,0.6-0.2,0.8-0.3c0.7-0.2,1.3-0.5,2-0.7c0.9-0.4,1.8-0.8,2.7-1.2
			c1.1-0.4,2-1.1,3.1-1.6c0.1,0,0.2-0.1,0.3-0.2c1-0.5,1.9-1.1,2.7-1.7c0.1-0.1,0.2-0.1,0.3-0.2c1.1-0.6,2-1.3,2.9-2.1
			c2.1-1.5,4-3.3,5.7-5.2c0.6-0.6,1.2-1.3,1.8-1.9c0.2-0.3,0.4-0.4,0.5-0.7C328.3,315.9,336.2,333.5,342.2,347.1z"></path>
		<path class="st0" d="M381.1,303.1c-0.6,24.5-32.5,58.9-32.5,58.9c-0.1-0.3-0.3-0.7-0.4-1.1c-1.2-2.9-3.4-8-6-13.8
			c-6-13.7-13.8-31.2-14.4-32.3c0-0.1,0-0.1,0-0.1c1-1.2,2-2.5,2.9-3.9c0.5-0.7,1-1.4,1.4-2.2c1.3-2.2,2.4-4.4,3.4-6.9
			c0.4-0.9,0.7-1.8,1-2.8c0.2-0.6,0.4-1.2,0.5-1.8c0.2-0.6,0.4-1.2,0.5-1.8c0.1-0.3,0.2-0.7,0.2-1
			C337.8,294.4,360.2,303.6,381.1,303.1z"></path>
	</g>
	<path class="st0" d="M14.4,294.4c0,0,50.8-14.8,95.4-11.3"></path>
	<path class="st0" d="M86.6,110.3c0,0,48.8,10.7,77.6,43.9"></path>
	<path class="st0" d="M274.7,46.5c0,0,29.4,35.1,32.8,72.5"></path>
	<path class="st0" d="M452.1,128.3c0,0,4.8,29.4-31.5,70"></path>
	<path class="st0" d="M499.3,303.2c0,0-21.1,9.2-71.9,0"></path>
	<path class="st0" d="M426.6,436c0,0-31.7-37.4-39.9-56.5"></path>
	<path class="st0" d="M307.5,465.3c0,0-4.1-10.9-1.1-49.4"></path>
	<path class="st0" d="M182,410.4c0,0,19.4-25.1,32.5-33"></path>
</g>
</svg><style>@media (prefers-color-scheme: light) { :root { filter: none; } }
</style></svg>